<?xml version="1.0" standalone="no"?>
<!DOCTYPE svg PUBLIC "-//W3C//DTD SVG 20010904//EN"
 "http://www.w3.org/TR/2001/REC-SVG-20010904/DTD/svg10.dtd">
<svg version="1.0" xmlns="http://www.w3.org/2000/svg"
 width="960.000000pt" height="960.000000pt" viewBox="0 0 960.000000 960.000000"
 preserveAspectRatio="xMidYMid meet">

<g transform="translate(0.000000,960.000000) scale(0.100000,-0.100000)"
fill="#000000" stroke="none">
<path d="M0 4800 l0 -4800 4800 0 4800 0 0 4800 0 4800 -4800 0 -4800 0 0
-4800z m4350 1125 l-410 -410 405 -405 c223 -223 405 -409 405 -413 0 -12
-223 -237 -235 -237 -13 0 -1055 1042 -1055 1055 0 5 237 247 527 537 l528
528 122 -122 123 -123 -410 -410z m830 -1940 l-965 -965 -240 0 -240 0 965
965 965 965 -395 395 -395 395 120 120 120 120 515 -515 515 -515 -965 -965z"/>
</g>
</svg>
